<svg 
 xmlns="http://www.w3.org/2000/svg"
 xmlns:xlink="http://www.w3.org/1999/xlink"
 width="41px" height="35px">
<defs>
<filter id="Filter_0">
    <feFlood flood-color="rgb(202, 202, 202)" flood-opacity="1" result="floodOut" />
    <feComposite operator="atop" in="floodOut" in2="SourceGraphic" result="compOut" />
    <feBlend mode="normal" in="compOut" in2="SourceGraphic" />
</filter>

</defs>
<g filter="url(#Filter_0)">
<path fill-rule="evenodd"  fill="rgb(254, 209, 54)"
 d="M36.954,34.533 L4.666,34.533 C3.180,34.533 0.630,33.329 0.630,31.843 C0.630,30.357 1.834,29.151 3.320,29.151 L38.300,29.151 C39.786,29.151 40.991,30.357 40.991,31.843 C40.991,33.329 38.440,34.533 36.954,34.533 ZM24.846,31.843 L16.774,31.843 C16.031,31.843 15.429,32.144 15.429,32.515 C15.429,32.887 16.031,33.188 16.774,33.188 L24.846,33.188 C25.589,33.188 26.192,32.887 26.192,32.515 C26.192,32.144 25.589,31.843 24.846,31.843 ZM15.565,14.781 L18.048,17.275 L26.050,9.237 C26.573,8.711 27.421,8.711 27.944,9.237 L29.839,11.139 C30.362,11.664 30.362,12.517 29.839,13.042 L19.421,23.506 C18.972,23.956 18.295,23.996 17.778,23.674 C17.338,23.784 16.856,23.688 16.512,23.342 L11.777,18.586 C11.254,18.061 11.254,17.209 11.777,16.683 L13.671,14.781 C14.194,14.255 15.042,14.255 15.565,14.781 ZM34.264,4.935 L7.356,4.935 L7.356,26.461 L3.320,26.461 L3.320,23.771 L3.568,23.771 C3.417,23.348 3.320,22.900 3.320,22.425 L3.320,4.935 C3.320,2.706 5.127,0.900 7.356,0.900 L34.264,0.900 C36.493,0.900 38.300,2.706 38.300,4.935 L38.300,22.425 C38.300,22.900 38.203,23.348 38.053,23.771 L38.300,23.771 L38.300,26.461 L34.264,26.461 L34.264,4.935 Z"/>
</g>
</svg>