<svg 
 xmlns="http://www.w3.org/2000/svg"
 xmlns:xlink="http://www.w3.org/1999/xlink"
 width="72px" height="42px">
<defs>
<filter id="Filter_0">
    <feFlood flood-color="rgb(255, 255, 255)" flood-opacity="1" result="floodOut" />
    <feComposite operator="atop" in="floodOut" in2="SourceGraphic" result="compOut" />
    <feBlend mode="normal" in="compOut" in2="SourceGraphic" />
</filter>

</defs>
<g filter="url(#Filter_0)">
<path fill-rule="evenodd"  fill="rgb(0, 0, 0)"
 d="M55.934,41.984 C47.753,41.984 40.990,35.776 40.001,27.796 C38.820,28.481 37.461,28.868 36.000,28.868 C34.553,28.868 33.179,28.481 31.998,27.796 C31.023,35.791 24.246,41.999 16.065,41.999 C7.206,41.999 -0.000,34.734 -0.000,25.801 C-0.000,21.230 1.875,17.106 4.902,14.158 C5.301,13.756 5.729,13.384 6.172,13.042 L12.226,7.860 C14.544,6.208 17.335,5.136 20.346,4.928 L23.700,1.533 L23.729,1.533 C24.763,0.580 26.121,0.014 27.612,0.014 C30.167,0.014 32.338,1.697 33.091,4.020 C33.918,3.498 34.892,3.186 35.941,3.186 C36.088,3.186 36.251,3.186 36.398,3.200 C37.329,3.260 38.185,3.543 38.923,4.020 C39.662,1.682 41.832,-0.001 44.402,-0.001 C45.893,-0.001 47.266,0.580 48.285,1.518 L48.314,1.518 L51.668,4.913 C54.680,5.122 57.455,6.178 59.788,7.846 L65.842,13.027 C66.285,13.384 66.713,13.756 67.112,14.143 C70.139,17.091 72.014,21.215 71.999,25.786 C71.999,34.719 64.793,41.984 55.934,41.984 ZM16.065,14.754 C10.011,14.754 5.109,19.697 5.109,25.801 C5.109,31.905 10.011,36.848 16.065,36.848 C22.120,36.848 27.037,31.891 27.022,25.801 C27.022,19.697 22.120,14.754 16.065,14.754 ZM36.014,17.106 C34.050,17.106 32.456,18.714 32.456,20.694 C32.456,22.674 34.050,24.282 36.014,24.282 C37.978,24.282 39.573,22.674 39.573,20.694 C39.573,18.714 37.978,17.106 36.014,17.106 ZM55.963,14.754 C49.909,14.754 45.007,19.697 45.007,25.801 C45.007,31.905 49.909,36.848 55.963,36.848 C62.017,36.848 66.920,31.891 66.920,25.801 C66.920,19.697 62.017,14.754 55.963,14.754 ZM55.978,22.183 C54.014,22.183 52.405,23.806 52.405,25.786 C52.405,26.694 51.666,27.439 50.766,27.439 C49.865,27.439 49.127,26.694 49.127,25.786 C49.127,21.990 52.183,18.893 55.963,18.893 C56.864,18.893 57.602,19.622 57.617,20.531 C57.617,21.439 56.879,22.183 55.978,22.183 ZM16.080,22.183 C14.116,22.183 12.507,23.806 12.507,25.786 C12.507,26.694 11.768,27.439 10.868,27.439 C9.967,27.439 9.229,26.694 9.229,25.786 C9.229,21.990 12.285,18.893 16.065,18.893 C16.966,18.893 17.704,19.622 17.719,20.531 C17.719,21.439 16.981,22.183 16.080,22.183 Z"/>
</g>
</svg>